<svg xmlns="http://www.w3.org/2000/svg" fill="none" viewBox="0 0 24 24" height="24" width="24">
  <g id="Copyright">
    <path id="Union" fill="#000000" d="M12 2c5.5228 0 10 4.47715 10 10 0 5.5228 -4.4772 10 -10 10 -5.52285 0 -10 -4.4772 -10 -10C2 6.47715 6.47715 2 12 2m0 2c-4.41828 0 -8 3.58172 -8 8 0 4.4183 3.58172 8 8 8 4.4183 0 8 -3.5817 8 -8 0 -4.41828 -3.5817 -8 -8 -8m0.1514 2.76953c0.6164 0 1.1872 0.08644 1.7109 0.25879 0.5235 0.16903 0.9842 0.41805 1.3818 0.74609 0.3977 0.32478 0.7212 0.72438 0.9698 1.19825 0.2484 0.47375 0.4022 1.01549 0.4619 1.62504h-2.4854c-0.0331 -0.255 -0.1014 -0.4851 -0.2041 -0.69047 -0.1027 -0.2055 -0.2391 -0.38151 -0.4082 -0.52735 -0.169 -0.14572 -0.3696 -0.25681 -0.6015 -0.333 -0.2286 -0.07948 -0.4825 -0.11915 -0.7608 -0.11915 -0.4936 0.00008 -0.9195 0.1205 -1.2773 0.36231 -0.3547 0.24195 -0.6281 0.59242 -0.8203 1.04976 -0.18887 0.4574 -0.28324 1.0107 -0.28324 1.6602 0 0.6761 0.09589 1.2428 0.28804 1.7002 0.1956 0.454 0.4691 0.7973 0.8204 1.0293 0.3546 0.2287 0.7739 0.3427 1.2578 0.3428 0.2718 0 0.5191 -0.0349 0.7412 -0.1045 0.2252 -0.0696 0.4228 -0.1702 0.5918 -0.3028 0.1722 -0.1358 0.3125 -0.3001 0.4219 -0.4921 0.1126 -0.1955 0.1912 -0.416 0.2343 -0.6612l2.4854 0.0147c-0.0431 0.4506 -0.1739 0.8946 -0.3926 1.332 -0.2154 0.4374 -0.512 0.8371 -0.8896 1.1982 -0.3779 0.358 -0.8393 0.6434 -1.3829 0.8555 -0.5401 0.2121 -1.1601 0.3184 -1.8593 0.3184 -0.9212 -0.0001 -1.7466 -0.2022 -2.47562 -0.6065 -0.7258 -0.4076 -1.29881 -1.0015 -1.71973 -1.7802 -0.42092 -0.7789 -0.63183 -1.7268 -0.63183 -2.8438 0 -1.1203 0.21404 -2.06975 0.6416 -2.84863 0.42753 -0.77881 1.00529 -1.37105 1.73438 -1.77539 0.7291 -0.40432 1.5464 -0.60641 2.4512 -0.60645" stroke-width="1"></path>
  </g>
</svg>